<?xml version="1.0" encoding="utf-8"?>
<!-- Generator: Adobe Illustrator 16.0.0, SVG Export Plug-In . SVG Version: 6.00 Build 0)  -->
<!DOCTYPE svg PUBLIC "-//W3C//DTD SVG 1.1//EN" "http://www.w3.org/Graphics/SVG/1.1/DTD/svg11.dtd">
<svg version="1.1" xmlns="http://www.w3.org/2000/svg" xmlns:xlink="http://www.w3.org/1999/xlink" x="0px" y="0px"
	 width="1575.32px" height="1907.32px" viewBox="0 0 1575.32 1907.32" enable-background="new 0 0 1575.32 1907.32"
	 xml:space="preserve">
<g id="TLO">
	<rect x="65.667" y="38" fill="#706F6F" width="1448" height="1696"/>
	<rect x="-63.397" y="38" fill="#DADADA" width="1638.32" height="1821"/>
	<rect x="1488.269" y="1702.334" fill="#E6007E" width="25.667" height="31.666"/>
</g>
<g id="Layer_3">
	<path fill="none" stroke="#3C3C3B" stroke-miterlimit="10" stroke-dasharray="2" d="M1484,923.5c0,0-174.5,55-272,58.5
		s-393.5,1-393.5,1s-226.5,2-339-67.5C363.5,867,238,825,238,825"/>
	<path fill="none" stroke="#3C3C3B" stroke-miterlimit="10" stroke-dasharray="2" d="M1483,925.119c0,0-174.5,55-272,58.5
		s-393.5,1-393.5,1s-226.5,2-339-67.5c-116-48.5-241.5-90.5-241.5-90.5"/>
	<path fill="none" stroke="#3C3C3B" stroke-miterlimit="10" stroke-dasharray="2" d="M1485,926.739c0,0-174.5,55-272,58.5
		s-393.5,1-393.5,1s-226.5,2-339-67.5c-116-48.5-241.5-90.5-241.5-90.5"/>
	<path fill="none" stroke="#3C3C3B" stroke-miterlimit="10" stroke-dasharray="2" d="M1483.5,929.881c0,0-174.5,55-272,58.5
		s-393.5,1-393.5,1s-226.5,2-339-67.5c-116-48.5-241.5-90.5-241.5-90.5"/>
	<path fill="none" stroke="#3C3C3B" stroke-miterlimit="10" stroke-dasharray="2" d="M1484,928.358c0,0-174.5,55-272,58.5
		c-97.685,3.507-97.446,3.5-393.5,1c0,0-226.5,2-339-67.5c-116-48.5-241.5-90.5-241.5-90.5"/>
	<path fill="none" stroke="#3C3C3B" stroke-miterlimit="10" stroke-dasharray="2" d="M1482.5,931.5c0,0-174.5,55-272,58.5
		S817,991,817,991s-226.5,2-339-67.5C362,875,236.5,833,236.5,833"/>
	<path fill="none" stroke="#3C3C3B" stroke-miterlimit="10" stroke-dasharray="2" d="M851,991c0,0,97,8,134.25,0"/>
	<path fill="none" stroke="#3C3C3B" stroke-miterlimit="10" stroke-dasharray="2" d="M851,991c0,0,92.25,15.5,134.25,0"/>
	<path fill="none" stroke="#3C3C3B" stroke-miterlimit="10" stroke-dasharray="2" d="M851,991c0,0,74.25,21,134.25,0"/>
	<path fill="none" stroke="#3C3C3B" stroke-miterlimit="10" stroke-dasharray="2" d="M463.25,918.25c122.25,66.5,181,66.5,286,70.5"
		/>
	<path fill="none" stroke="#3C3C3B" stroke-miterlimit="10" stroke-dasharray="2" d="M463.25,918.25"/>
	<path fill="none" stroke="#3C3C3B" stroke-miterlimit="10" stroke-dasharray="2" d="M463.25,918.25c121.75,64.75,179.5,62,286,70.5
		"/>
	<path fill="none" stroke="#3C3C3B" stroke-miterlimit="10" stroke-dasharray="2" d="M749.25,988.75"/>
	<path fill="none" stroke="#3C3C3B" stroke-miterlimit="10" stroke-dasharray="2" d="M463.25,918.25"/>
	<path fill="none" stroke="#3C3C3B" stroke-miterlimit="10" stroke-dasharray="2" d="M463.25,918.25c123.25,61,179.5,62,286,70.5"/>
	<path fill="none" stroke="#3C3C3B" stroke-miterlimit="10" stroke-dasharray="2" d="M463.25,918.25c141.5,74.25,179.5,69,286,70.5"
		/>
	<path fill="none" stroke="#3C3C3B" stroke-miterlimit="10" stroke-dasharray="2" d="M475,913.25C595.5,920.75,782.5,982,782.5,982"
		/>
	<path fill="none" stroke="#3C3C3B" stroke-miterlimit="10" stroke-dasharray="2" d="M475,913.25c119,14,309,69.25,309,69.25"/>
	<path fill="none" stroke="#3C3C3B" stroke-miterlimit="10" stroke-dasharray="2" d="M475,913.25c117,20,309,69.25,309,69.25"/>
	<path fill="none" stroke="#3C3C3B" stroke-miterlimit="10" stroke-dasharray="2" d="M475,913.25c115,25.25,309,69.25,309,69.25"/>
	<path fill="none" stroke="#3C3C3B" stroke-miterlimit="10" stroke-dasharray="2" d="M475,913.25C589.5,942,784,982.5,784,982.5"/>
	<path fill="none" stroke="#3C3C3B" stroke-miterlimit="10" stroke-dasharray="2" d="M475,913.25c113.25,33.5,309,69.25,309,69.25"
		/>
	<path fill="none" stroke="#3C3C3B" stroke-miterlimit="10" stroke-dasharray="2" d="M475,913.25c112.5,38,309,69.25,309,69.25"/>
	<path fill="none" stroke="#3C3C3B" stroke-miterlimit="10" stroke-dasharray="2" d="M475,913.25C586.25,958,784,982.5,784,982.5"/>
	<path fill="none" stroke="#3C3C3B" stroke-miterlimit="10" stroke-dasharray="2" d="M475,913.25c110.75,48.25,309,69.25,309,69.25"
		/>
	<path fill="none" stroke="#3C3C3B" stroke-miterlimit="10" stroke-dasharray="2" d="M475,913.25c109.25,53,309,69.25,309,69.25"/>
	<path fill="none" stroke="#3C3C3B" stroke-miterlimit="10" stroke-dasharray="2" d="M475,913.25c107.75,57.5,309,69.25,309,69.25"
		/>
	<path fill="none" stroke="#3C3C3B" stroke-miterlimit="10" stroke-dasharray="2" d="M475,913.25C581.25,975,784,982.5,784,982.5"/>
	<path fill="none" stroke="#3C3C3B" stroke-miterlimit="10" stroke-dasharray="2" d="M295,1346.5l204.5-219
		c83.5-58,219-132.5,298-135.5"/>
	<path fill="none" stroke="#3C3C3B" stroke-miterlimit="10" stroke-dasharray="2" d="M497.5,1125.5c83.5-58,219-132.5,298-135.5"/>
	<path fill="none" stroke="#3C3C3B" stroke-miterlimit="10" stroke-dasharray="2" d="M395,891.5
		c-25.107-12.741,206.992,59.234,120.5,208c-12.5,21.5-161.222,176.645-190.5,211"/>
	<path fill="none" stroke="#3C3C3B" stroke-miterlimit="10" stroke-dasharray="2" d="M395,891.5c0,0,169.197,58.429,135.5,170"/>
	<path fill="none" stroke="#3C3C3B" stroke-miterlimit="10" stroke-dasharray="2" d="M395,891.5c0,0,159.826,56.871,135.5,170"/>
	<path fill="none" stroke="#3C3C3B" stroke-miterlimit="10" stroke-dasharray="2" d="M395,891.5c0,0,150.702,56.875,135.5,170"/>
	<path fill="none" stroke="#3C3C3B" stroke-miterlimit="10" stroke-dasharray="2" d="M395,891.5c0,0,141.167,56.303,135.5,170"/>
	<path fill="none" stroke="#3C3C3B" stroke-miterlimit="10" stroke-dasharray="2" d="M395,891.5c0,0,132.783,57.951,135.5,170"/>
	<line fill="none" stroke="#3C3C3B" stroke-miterlimit="10" stroke-dasharray="2" x1="238.5" y1="835.5" x2="423" y2="905.5"/>
	<line fill="none" stroke="#3C3C3B" stroke-miterlimit="10" stroke-dasharray="2" x1="239" y1="833" x2="423.5" y2="903"/>
	<line fill="none" stroke="#3C3C3B" stroke-miterlimit="10" stroke-dasharray="2" x1="239" y1="838" x2="423.5" y2="908"/>
	<polyline fill="none" stroke="#3C3C3B" stroke-miterlimit="10" points="801,979.25 804,981.5 804.75,992.5 801.5,994.75 	"/>
	<polyline fill="none" stroke="#3C3C3B" stroke-miterlimit="10" points="812.196,978.318 809.524,980.95 810.253,991.952 
		813.774,993.746 	"/>
	<polyline fill="none" stroke="#3C3C3B" stroke-miterlimit="10" points="987.577,978.986 989.985,981.86 988.211,992.742 
		984.533,994.193 	"/>
	<polyline fill="none" stroke="#3C3C3B" stroke-miterlimit="10" points="998.69,980.63 995.49,982.584 993.694,993.462 
		996.714,996.012 	"/>
	<polyline fill="none" stroke="#3C3C3B" stroke-miterlimit="10" points="1163.666,978.469 1166.212,981.223 1164.969,992.178 
		1161.367,993.806 	"/>
	<polyline fill="none" stroke="#3C3C3B" stroke-miterlimit="10" points="1174.847,979.568 1171.745,981.677 1170.48,992.629 
		1173.621,995.028 	"/>
	<polyline fill="none" stroke="#3C3C3B" stroke-miterlimit="10" points="1240.701,974.94 1243.48,977.458 1243.209,988.48 
		1239.766,990.42 	"/>
	<polyline fill="none" stroke="#3C3C3B" stroke-miterlimit="10" points="1251.936,975.049 1249.032,977.422 1248.739,988.443 
		1252.08,990.557 	"/>
	<path fill="none" stroke="#3C3C3B" stroke-miterlimit="10" stroke-dasharray="2" d="M782.5,982c0,0-162-20-147.055-135.587"/>
	<path fill="none" stroke="#3C3C3B" stroke-miterlimit="10" stroke-dasharray="2" d="M782.5,982c0,0-152.5-20-147.055-135.587"/>
	<path fill="none" stroke="#3C3C3B" stroke-miterlimit="10" stroke-dasharray="2" d="M782.5,982c0,0-143.5-21.5-147.055-135.587"/>
	<path fill="none" stroke="#3C3C3B" stroke-miterlimit="10" stroke-dasharray="2" d="M782.5,982c0,0-134-22.5-147.055-135.587"/>
	<path fill="none" stroke="#3C3C3B" stroke-miterlimit="10" stroke-dasharray="2" d="M782.5,982c0,0-126-25.5-147.055-135.587"/>
	<path fill="none" stroke="#3C3C3B" stroke-miterlimit="10" stroke-dasharray="2" d="M572.667,636.667
		c50.153-5.211,114.306,125.759-9.603,271.673c-2.917,3.435-5.937,6.877-9.064,10.326c-9.333,1.334-56.499-6.902-67.333-6
		c-14.639,1.221-82.105-25.338-144.158-51.688C302.826,844.127,261.523,832.361,241.5,823"/>
</g>
</svg>
