<?xml version="1.0" encoding="utf-8"?>
<!-- Generator: Adobe Illustrator 16.0.0, SVG Export Plug-In . SVG Version: 6.00 Build 0)  -->
<!DOCTYPE svg PUBLIC "-//W3C//DTD SVG 1.1//EN" "http://www.w3.org/Graphics/SVG/1.1/DTD/svg11.dtd">
<svg version="1.1" xmlns="http://www.w3.org/2000/svg" xmlns:xlink="http://www.w3.org/1999/xlink" x="0px" y="0px"
	 width="1575.32px" height="1907.32px" viewBox="0 0 1575.32 1907.32" enable-background="new 0 0 1575.32 1907.32"
	 xml:space="preserve">
<g id="TLO">
	<rect x="65.667" y="38" fill="#706F6F" width="1448" height="1696"/>
	<rect x="-63.397" y="38" fill="#DADADA" width="1638.32" height="1821"/>
	<rect x="1488.269" y="1702.334" fill="#E6007E" width="25.667" height="31.666"/>
</g>
<g id="Layer_4">
	<path fill="#97BC9D" d="M474.439,1581l35.001-146.24l11.292-47.183L597.583,1405l90.917,4.75v3.25l46.438,5.807l21.062-2.908
		l28-4.648L669,1693.5l-15,3l-16.5,3l-21.5,4l-21.081,2.91l-13.38,11.168l-9.642,8.048l-10.274-12.856l-7.333-9.177L522.25,1663.5
		c0,0,24.607-20.31,30.679-18.071c0,0-6.318-23.284-6.929-28.429c-3.111-0.991-5-4.562-5-4.562s-22.502-2.158-31.625-8.938
		s-9.124-4.757-9.124-4.757l-15.46-10.569L474.439,1581z"/>
	<polygon fill="#C0B9AD" points="406,869.25 412.375,822.812 448.717,828.005 442.75,885.75 	"/>
	<ellipse fill="#97BC9D" cx="778.75" cy="904.5" rx="23" ry="20.25"/>
	<polygon fill="#C0B9AD" points="1162.875,1100.141 1239.125,1099.876 1236.875,1142.94 1235.375,1178.343 1199.375,1178.343 
		1162.875,1178.343 	"/>
	<polygon fill="#97BC9D" points="1253.875,1064.375 1263.875,1064.417 1263.388,1099.168 1321.318,1098.172 1321.318,1141.988 
		1320.875,1182.383 1237.339,1181.971 1241.17,1085.25 1252.512,1085.25 	"/>
	<polygon fill="#97BC9D" points="925.885,1067.416 955.659,1074.125 954.5,1082.75 951.001,1107.333 909.668,1108 	"/>
	<path fill="#C0B9AD" d="M1005.5,1202.75l38-0.25l2.25,54.75l2.5,66.5H993l1-11.375c0,0,11.5-1.25,12.25-1s-2.5-54.875-2.5-54.875
		l1.25-54.75"/>
	<polygon fill="#97BC9D" points="758.083,1320.797 711.917,1327.816 714.146,1383.816 794.583,1386.463 818.083,1330.28 
		761.099,1337.936 	"/>
	<polygon fill="#97BC9D" points="570,1141.93 575.25,1149.18 579.5,1147.43 581.75,1149.93 584,1147.43 586.5,1149.93 
		595.5,1142.68 595.5,1138.68 594.75,1136.93 	"/>
	<polygon fill="#97BC9D" points="489.75,1156.875 493,1164.625 497.25,1164.625 513,1152.375 	"/>
	<polygon fill="#C0B9AD" points="648.492,1071.688 655.742,1069.188 657.992,1073.188 665.742,1069.188 668.742,1075.188 
		667.492,1076.688 649.992,1082.688 646.992,1079.438 	"/>
	<polygon fill="#97BC9D" points="720.526,1156.5 727.749,1143.5 760.75,1158.25 754.25,1172.5 737.75,1164.5 741.25,1156 
		729,1150.25 725.5,1159.5 	"/>
	<polygon fill="#97BC9D" points="834.5,1028.328 853.553,1037.75 855.001,1074.25 845.125,1092.25 815.182,1091.121 816,1087.875 	
		"/>
	<path fill="#97BC9D" d="M1057.396,706.961c0.571,1.96,0.883,4.03,0.883,6.174c0,12.177-7.193,21.881-19.37,21.881
		c-5.182,0-12.62-1.625-16.384-4.616l-2.712,42.512l34.781,4.331l28.25,3.75l5.505-37.934L1104,714.375L1057.396,706.961z"/>
	<path fill="#97BC9D" d="M798.119,624.039c3.326-6.989,5.815-13.215,14.881-33.813s8.334-16.56-14.881-21.489
		c17.215-41.404,27.881-41.728-19.561-48.265l-50.25,97.982c0,0,36.512,7.917,52.435,10.398S794.793,631.028,798.119,624.039z"/>
	<polygon fill="#97BC9D" points="945.304,1227.833 988.668,1228 987.75,1280.157 943.25,1280.5 	"/>
	<path fill="#97BC9D" d="M1296.68,1183.725l29.61,0.556c0,0-3.606,30.507-4.698,34.363s-12.857,4.274-14.1-1.185
		s1.262-18.257,1.262-18.257s-9.861-0.417-11.808-4.935"/>
	<polygon fill="#97BC9D" points="1217.75,920.5 1248.828,925.236 1247,963 1232.5,961.75 1236.75,953.75 1228.5,944.5 1215.75,943 	
		"/>
</g>
</svg>
